<?xml version="1.0" encoding="UTF-8" standalone="no"?>
<!-- Generator: Gravit.io -->
<svg xmlns="http://www.w3.org/2000/svg" xmlns:xlink="http://www.w3.org/1999/xlink" style="isolation:isolate" viewBox="0 0 64 64" width="64pt" height="64pt"><defs><clipPath id="_clipPath_EhqN1M3T6ngY5wKPodnGliyyggwxEdC0"><rect width="64" height="64"/></clipPath></defs><g clip-path="url(#_clipPath_EhqN1M3T6ngY5wKPodnGliyyggwxEdC0)"><ellipse vector-effect="non-scaling-stroke" cx="32.000000000000014" cy="32" rx="20.4992971873006" ry="20.5" fill="rgb(16,32,80)"/><path d=" M 13.726 22.725 C 17.107 16.064 24.025 11.5 32 11.5 C 43.314 11.5 52.499 20.686 52.499 32 C 52.499 39.976 47.935 46.894 41.274 50.275 C 42.699 47.492 43.499 44.339 43.499 41 C 43.499 29.686 34.314 20.5 23 20.5 C 19.662 20.5 16.508 21.3 13.726 22.725 Z " fill="rgb(18,53,135)"/><path d=" M 8.91 17.988 C 9.307 17.346 9.728 16.72 10.174 16.114 C 10.584 15.557 11.016 15.018 11.47 14.498 C 16.177 10.442 22.305 8 29 8 C 43.901 8 55.999 20.098 55.999 35 C 55.999 41.697 53.556 47.828 49.497 52.534 C 48.971 52.994 48.426 53.43 47.863 53.844 C 47.263 54.284 46.645 54.699 46.01 55.091 C 48.545 50.996 49.999 46.166 49.999 41 C 49.999 26.098 37.901 14 23 14 C 17.834 14 13.005 15.454 8.91 17.988 Z " fill="rgb(24,71,180)"/><path d=" M 10.174 16.114 C 15.08 9.358 23.02 5 32 5 C 46.901 5 58.999 17.098 58.999 32 C 58.999 40.981 54.619 48.938 47.863 53.844 C 51.103 49.394 52.999 43.921 52.999 38 C 52.999 23.098 40.901 11 26 11 C 20.079 11 14.624 12.873 10.174 16.114 Z " fill="rgb(74,134,232)"/><path d=" M 60.961 21.152 C 60.984 20.856 61 20.557 61 20.255 C 61 15.699 57.308 12 52.76 12 C 50.486 12 48.426 12.925 46.934 14.419 C 45.443 15.913 47.523 20.922 50.786 20.052 C 52.457 19.607 54.195 19.197 55.633 19.197 C 57.663 19.197 59.523 19.933 60.961 21.152 Z " fill="rgb(74,134,232)"/></g></svg>